<svg width="160" height="56" viewBox="0 0 160 56" fill="none" xmlns="http://www.w3.org/2000/svg">
<g clip-path="url(#clip0_398_6900)">
<path d="M33.4411 27.5039H22.3392C22.3429 27.5039 20.6073 32.8208 22.3098 40.0815" stroke="#4BBB5F" stroke-width="5.29989" stroke-miterlimit="10" stroke-linecap="round" stroke-linejoin="round"/>
<path d="M36.8687 17.572C36.8687 17.572 32.1467 23.0476 33.8157 34.4202C35.2248 44.0228 46.2286 43.1983 49.2864 34.1846C53.5566 21.5967 46.1453 6.37891 29.3534 6.37891C16.0846 6.37891 7.0723 17.1006 7.18961 30.2965C7.29142 41.7252 16.6717 57.9845 41.9178 50.7974" stroke="#4BBB5F" stroke-width="5.29989" stroke-miterlimit="10" stroke-linecap="round" stroke-linejoin="round"/>
<path d="M33.4411 27.5039H22.3392C22.3429 27.5039 20.6073 32.8208 22.3098 40.0815" stroke="#4BBB5F" stroke-width="5.29989" stroke-miterlimit="10" stroke-linecap="round" stroke-linejoin="round"/>
<path d="M36.8687 17.572C36.8687 17.572 32.1467 23.0476 33.8157 34.4202C35.2248 44.0228 46.2286 43.1983 49.2864 34.1846C53.5566 21.5967 46.1453 6.37891 29.3534 6.37891C16.0846 6.37891 7.0723 17.1006 7.18961 30.2965C7.29142 41.7252 16.6717 57.9845 41.9178 50.7974" stroke="#4BBB5F" stroke-width="5.29989" stroke-miterlimit="10" stroke-linecap="round" stroke-linejoin="round"/>
<path d="M107.167 52.0346C97.9276 48.827 92.7571 42.6033 91.3688 33.1241H88.7357V51.891H82.5599V33.1241H79.8789C78.4905 42.6033 73.3201 48.827 64.0803 52.0346V45.5715C69.4422 43.3693 72.7934 39.3478 73.9903 33.1241H63.6973V27.1398H82.512V16.7031H65.4207V10.7188H82.512V7.84633H88.7357V10.7188H105.827V16.7031H88.7357V27.1398H107.55V33.1241H97.2574C98.4542 39.3478 101.805 43.3693 107.167 45.5715V52.0346ZM68.0538 18.0436H74.1818L76.7192 25.6557H70.5912L68.0538 18.0436ZM94.5285 25.6557L97.0659 18.0436H103.194L100.656 25.6557H94.5285ZM111.476 24.9854C115.067 20.5331 117.413 15.0754 118.705 8.80383H124.737C124.067 12.8732 123.062 16.6074 121.673 20.0544V51.891H115.498V30.4432C114.253 31.8794 112.912 33.2678 111.476 34.5125V24.9854ZM123.924 51.3165V45.1407H155.712V51.3165H123.924ZM124.785 19.9586V13.8307H136.706V8.51658H142.93V13.8307H154.803V19.9586H124.785ZM127.179 22.7353H133.498L137.137 42.4597H130.817L127.179 22.7353ZM142.499 42.4597L146.137 22.7353H152.457L148.818 42.4597H142.499Z" fill="url(#paint0_linear_398_6900)"/>
</g>
<defs>
<linearGradient id="paint0_linear_398_6900" x1="109.687" y1="-5.89648" x2="109.687" y2="58.1035" gradientUnits="userSpaceOnUse">
<stop stop-color="#DDDDDD"/>
<stop offset="1" stop-color="white"/>
</linearGradient>
<clipPath id="clip0_398_6900">
<rect width="160" height="56" fill="white"/>
</clipPath>
</defs>
</svg>
